<?xml version="1.0" encoding="UTF-8"?>
<svg id="_レイヤー_2" data-name="レイヤー_2" xmlns="http://www.w3.org/2000/svg" viewBox="0 0 578.7 214.41">
  <defs>
    <style>
      .cls-1 {
        fill: #e1f6fa;
      }

      .cls-2 {
        fill: none;
        stroke: #000;
        stroke-miterlimit: 10;
      }
    </style>
  </defs>
  <g id="_レイヤー_5" data-name="レイヤー_5">
    <path class="cls-1" d="M284.94,172.41c.05-.06-1.87-1.94-1.87-1.93,0,0,1.33,1.39,1.37,1.43,1.66,1.71,13.12,1.74,37-17,29.12-22.86,46.15-36.23,51.55-60.12,8.07-35.71-12.76-82.05-47.97-92.56-26.49-7.91-51.82,7.24-62.58,13.68-10.45,6.25-30.63,18.33-38.4,42.24-10,30.79,7.64,59.41,13.4,68.76,17.45,28.31,47.31,45.72,47.5,45.5Z"/>
    <path class="cls-2" d="M.3,104.44c93.77,69,208,96.6,290.34,67.49,9.01-3.19,75.46-26.68,88.36-77.13,8.94-34.95-7.53-84-47.97-92.56-38.74-8.2-87.72,23.26-100.99,55.92-21.62,53.24,47.34,120.18,123.71,144.63,111.49,35.69,218.95-25.54,224.69-28.93"/>
  </g>
</svg>